<?xml version="1.0" encoding="utf-8"?>
<!-- Generator: Adobe Illustrator 25.4.1, SVG Export Plug-In . SVG Version: 6.00 Build 0)  -->
<svg version="1.1" id="Layer_1" xmlns="http://www.w3.org/2000/svg" xmlns:xlink="http://www.w3.org/1999/xlink" x="0px" y="0px"
	 viewBox="0 0 32 32" style="enable-background:new 0 0 32 32;" xml:space="preserve">
<style type="text/css">
	.st0{fill:#00C896;}
	.st1{fill:#00B783;stroke:#02C18B;stroke-miterlimit:10;}
	.st2{fill:#001911;}
</style>
<path class="st0" d="M28.72,31.26H3.28c-1.4,0-2.53-1.13-2.53-2.53V3.28c0-1.4,1.13-2.53,2.53-2.53h25.45c1.4,0,2.53,1.13,2.53,2.53
	v25.45C31.26,30.12,30.12,31.26,28.72,31.26z"/>
<g>
	<path class="st1" d="M10.04,24.25v-6.44c-0.6-0.49-1.18-1.08-1.74-1.76c-0.56-0.68-0.94-1.22-1.14-1.61s-0.3-1.19-0.3-2.4V8.15
		h3.17v3.89c0,0.78,0.06,1.33,0.2,1.64s0.36,0.69,0.69,1.14c0.33,0.45,0.56,0.67,0.7,0.67c0.14,0,0.38-0.23,0.71-0.68
		s0.57-0.82,0.69-1.12c0.12-0.29,0.18-0.84,0.18-1.66V8.15h3.17v3.89c0,1.23-0.1,2.03-0.3,2.42s-0.58,0.92-1.15,1.6
		c-0.57,0.68-1.14,1.27-1.73,1.76v6.44H10.04z"/>
	<path class="st1" d="M19.68,9.37c1.09-1,1.92-1.5,2.48-1.5c0.57,0,1.39,0.5,2.48,1.5c1.09,1,1.76,1.82,2.02,2.46
		c0.17,0.44,0.25,1.45,0.25,3.01v9.41h-3.17V20.8h-3.17v3.45H17.4v-9.41c0-1.56,0.08-2.57,0.25-3.01
		C17.92,11.19,18.59,10.37,19.68,9.37z M20.58,14.84v3.2h3.17v-3.2c0-1.26-0.06-2.03-0.18-2.31c-0.12-0.28-0.33-0.58-0.63-0.9
		c-0.3-0.31-0.56-0.47-0.77-0.47s-0.47,0.16-0.77,0.47c-0.3,0.31-0.51,0.61-0.63,0.9S20.58,13.59,20.58,14.84z"/>
</g>
<g>
	<path class="st2" d="M9.14,24.19v-6.44c-0.6-0.49-1.18-1.08-1.74-1.76c-0.56-0.68-0.94-1.22-1.14-1.61s-0.3-1.19-0.3-2.4V8.09h3.17
		v3.89c0,0.78,0.06,1.33,0.2,1.64s0.36,0.69,0.69,1.14c0.33,0.45,0.56,0.67,0.7,0.67c0.14,0,0.38-0.23,0.71-0.68
		s0.57-0.82,0.69-1.12c0.12-0.29,0.18-0.84,0.18-1.66V8.09h3.17v3.89c0,1.23-0.1,2.03-0.3,2.42s-0.58,0.92-1.15,1.6
		c-0.57,0.68-1.14,1.27-1.73,1.76v6.44H9.14z"/>
	<path class="st2" d="M18.79,9.31c1.09-1,1.92-1.5,2.48-1.5c0.57,0,1.39,0.5,2.48,1.5c1.09,1,1.76,1.82,2.02,2.46
		c0.17,0.44,0.25,1.45,0.25,3.01v9.41h-3.17v-3.45h-3.17v3.45h-3.17v-9.41c0-1.56,0.08-2.57,0.25-3.01
		C17.02,11.12,17.7,10.3,18.79,9.31z M19.68,14.78v3.2h3.17v-3.2c0-1.26-0.06-2.03-0.18-2.31c-0.12-0.28-0.33-0.58-0.63-0.9
		c-0.3-0.31-0.56-0.47-0.77-0.47s-0.47,0.16-0.77,0.47c-0.3,0.31-0.51,0.61-0.63,0.9S19.68,13.52,19.68,14.78z"/>
</g>
</svg>
